<svg width="347" height="347" viewBox="0 0 347 347" fill="none" xmlns="http://www.w3.org/2000/svg">
<g opacity="0.25">
<path d="M157.667 301.86L260.842 138.184C261.991 136.391 262.642 134.324 262.729 132.196C262.815 130.068 262.334 127.956 261.334 126.075C260.334 124.195 258.852 122.615 257.04 121.496C255.227 120.378 253.15 119.762 251.021 119.712L57.6726 113.927C55.5822 113.882 53.5163 114.384 51.6796 115.383C49.8429 116.382 48.2993 117.844 47.2015 119.624C46.1038 121.403 45.4901 123.439 45.4213 125.529C45.3525 127.619 45.8309 129.69 46.8092 131.538C47.4531 132.74 48.2972 133.823 49.3051 134.741L119.198 200.053L119.222 200.097C119.916 200.732 120.37 201.586 120.508 202.517L135.699 297.118C136.053 299.54 137.139 301.795 138.812 303.582C140.484 305.369 142.662 306.601 145.055 307.115C147.448 307.628 149.94 307.398 152.198 306.455C154.456 305.511 156.372 303.9 157.689 301.837L157.667 301.86ZM146.691 299.281C145.882 299.117 145.144 298.703 144.584 298.096C144.023 297.489 143.668 296.721 143.569 295.901L128.411 201.361L182.032 172.85C182.969 172.352 183.669 171.503 183.98 170.488C184.29 169.474 184.184 168.377 183.686 167.441C183.188 166.504 182.338 165.804 181.324 165.493C180.309 165.183 179.213 165.289 178.277 165.787L124.726 194.26L124.665 194.146L54.7532 128.821C54.1521 128.274 53.7318 127.557 53.5483 126.765C53.3648 125.973 53.4268 125.144 53.726 124.389C54.0253 123.633 54.5476 122.987 55.2234 122.535C55.8992 122.084 56.6965 121.849 57.5091 121.862L250.853 127.639C251.567 127.651 252.265 127.854 252.874 128.227C253.484 128.6 253.982 129.13 254.318 129.761C254.653 130.392 254.813 131.101 254.782 131.815C254.751 132.529 254.528 133.221 254.139 133.82L150.91 297.525C150.482 298.225 149.844 298.772 149.086 299.088C148.328 299.403 147.49 299.471 146.691 299.281Z" fill="#A64141"/>
</g>
</svg>
