<svg width="52" height="40" viewBox="0 0 52 40" fill="none" xmlns="http://www.w3.org/2000/svg">
<path d="M39.9694 0.676817C39.8442 0.675723 39.7186 0.676817 39.5931 0.680098C37.7707 0.726911 35.9361 1.21877 34.2545 2.20118C18.0021 11.6953 23.1303 8.62368 6.52437 18.2109L6.01512 18.5049V18.5391C1.02653 21.7868 -0.622081 28.4315 2.38879 33.6465C5.50204 39.0387 12.4485 40.9192 17.8312 37.7787C34.3895 28.1187 29.2459 31.1713 45.5578 21.769C50.9529 18.6595 52.8101 11.7258 49.6969 6.33358C47.6235 2.74236 43.8486 0.707113 39.9694 0.676707V0.676817ZM40.1162 2.478C42.8784 2.52241 45.5501 3.95588 47.0171 6.50782C47.2161 6.85388 47.3218 7.26447 47.4649 7.62563C44.9629 4.79719 40.6989 4.01188 37.2963 5.985C30.2386 10.0778 28.1481 11.3295 25.7369 12.7525C28.1934 14.8727 30.5844 18.454 31.6705 21.7245C25.4667 25.3116 26.0212 25.079 15.3906 31.2436C11.988 33.2168 7.72411 32.4312 5.22204 29.603C5.36533 29.9639 5.47109 30.3746 5.66994 30.7208C7.90534 34.6093 12.9376 35.8949 16.8262 33.6397C27.0028 27.7383 26.8699 27.7548 32.2686 24.6367C32.3241 25.6874 32.1571 26.6252 31.7115 27.3643C28.5623 29.1681 25.8813 30.7163 16.7987 36.0151C12.3811 38.5926 6.71939 37.0591 4.15903 32.6245C1.59878 28.1902 3.11187 22.5416 7.54637 19.9816L8.05901 19.6841C16.0636 15.0648 18.8459 13.4861 21.8195 11.7818C25.8742 9.43021 26.6488 8.93091 35.8606 3.58904C37.1974 2.81379 38.6691 2.45482 40.116 2.47811L40.1162 2.478Z" fill="#A64141"/>
</svg>
