<svg width="57" height="57" viewBox="0 0 57 57" fill="none" xmlns="http://www.w3.org/2000/svg">
<path d="M28.5 11.875L29.7587 10.6162C29.4248 10.2827 28.972 10.0953 28.5 10.0953C28.028 10.0953 27.5752 10.2827 27.2413 10.6162L28.5 11.875ZM28.5 30.875L27.2413 32.1337C27.5752 32.4673 28.028 32.6547 28.5 32.6547C28.972 32.6547 29.4248 32.4673 29.7587 32.1337L28.5 30.875ZM22.4913 15.3662C22.1766 15.7039 22.0053 16.1505 22.0135 16.612C22.0216 17.0735 22.2085 17.5137 22.5349 17.8401C22.8613 18.1665 23.3015 18.3534 23.763 18.3615C24.2245 18.3697 24.6711 18.1984 25.0087 17.8838L22.4913 15.3662ZM31.9913 17.8838C32.1543 18.0588 32.351 18.1991 32.5695 18.2965C32.788 18.3938 33.0238 18.4462 33.263 18.4504C33.5022 18.4546 33.7397 18.4106 33.9615 18.321C34.1833 18.2315 34.3848 18.0981 34.554 17.929C34.7231 17.7598 34.8565 17.5583 34.946 17.3365C35.0356 17.1147 35.0796 16.8772 35.0754 16.638C35.0712 16.3988 35.0188 16.163 34.9215 15.9445C34.8241 15.726 34.6838 15.5293 34.5087 15.3662L31.9913 17.8838ZM25.0087 24.8663C24.8457 24.6912 24.649 24.5509 24.4305 24.4535C24.212 24.3562 23.9762 24.3038 23.737 24.2996C23.4978 24.2954 23.2603 24.3394 23.0385 24.429C22.8167 24.5185 22.6152 24.6519 22.446 24.821C22.2769 24.9902 22.1435 25.1917 22.054 25.4135C21.9644 25.6353 21.9204 25.8728 21.9246 26.112C21.9288 26.3512 21.9812 26.587 22.0785 26.8055C22.1759 27.024 22.3162 27.2207 22.4913 27.3837L25.0087 24.8663ZM34.5087 27.3837C34.6838 27.2207 34.8241 27.024 34.9215 26.8055C35.0188 26.587 35.0712 26.3512 35.0754 26.112C35.0796 25.8728 35.0356 25.6353 34.946 25.4135C34.8565 25.1917 34.7231 24.9902 34.554 24.821C34.3848 24.6519 34.1833 24.5185 33.9615 24.429C33.7397 24.3394 33.5022 24.2954 33.263 24.2996C33.0238 24.3038 32.788 24.3562 32.5695 24.4535C32.351 24.5509 32.1543 24.6912 31.9913 24.8663L34.5087 27.3837ZM7.71875 23.75V33.25H11.2812V23.75H7.71875ZM49.2812 33.25V23.75H45.7188V33.25H49.2812ZM26.7188 11.875V30.875H30.2812V11.875H26.7188ZM27.2413 10.6162L22.4913 15.3662L25.0087 17.8838L29.7587 13.1338L27.2413 10.6162ZM27.2413 13.1338L31.9913 17.8838L34.5087 15.3662L29.7587 10.6162L27.2413 13.1338ZM29.7587 29.6163L25.0087 24.8663L22.4913 27.3837L27.2413 32.1337L29.7587 29.6163ZM29.7587 32.1337L34.5087 27.3837L31.9913 24.8663L27.2413 29.6163L29.7587 32.1337ZM49.2812 23.75C49.2812 18.2385 47.0918 12.9527 43.1946 9.05544C39.2973 5.1582 34.0115 2.96875 28.5 2.96875V6.53125C33.0667 6.53125 37.4464 8.34536 40.6755 11.5745C43.9046 14.8036 45.7188 19.1833 45.7188 23.75H49.2812ZM28.5 54.0312C31.229 54.0312 33.9313 53.4937 36.4526 52.4494C38.9739 51.405 41.2648 49.8743 43.1946 47.9446C45.1243 46.0148 46.655 43.7239 47.6994 41.2026C48.7437 38.6813 49.2812 35.979 49.2812 33.25H45.7188C45.7188 37.8167 43.9046 42.1964 40.6755 45.4255C37.4464 48.6546 33.0667 50.4688 28.5 50.4688V54.0312ZM7.71875 33.25C7.71875 38.7615 9.9082 44.0473 13.8054 47.9446C17.7027 51.8418 22.9885 54.0312 28.5 54.0312V50.4688C23.9333 50.4688 19.5536 48.6546 16.3245 45.4255C13.0954 42.1964 11.2812 37.8167 11.2812 33.25H7.71875ZM11.2812 23.75C11.2812 19.1833 13.0954 14.8036 16.3245 11.5745C19.5536 8.34536 23.9333 6.53125 28.5 6.53125V2.96875C22.9885 2.96875 17.7027 5.1582 13.8054 9.05544C9.9082 12.9527 7.71875 18.2385 7.71875 23.75H11.2812Z" fill="#A64141"/>
</svg>
