<svg width="329" height="648" viewBox="0 0 329 648" fill="none" xmlns="http://www.w3.org/2000/svg">
<path d="M99.5662 182.277C93.6478 175.362 85.2825 172.811 80.8823 176.578C76.4822 180.345 77.7139 189.003 83.6354 195.92C85.9628 198.715 88.9259 200.913 92.2767 202.328L117.723 231.31L131.069 219.079L104.567 191.806C103.685 188.276 101.97 185.008 99.5662 182.277Z" fill="#FFB6B6"/>
<path d="M290.566 217.62C290.566 217.62 296.131 243.095 274.04 251.219C251.949 259.342 194.703 290.533 190.466 289.104C186.228 287.674 172.365 294.652 156.003 279.766C139.64 264.88 100.111 220 100.111 220L116.371 197.917L177.589 240.208C177.589 240.208 178.899 239.819 184.702 239.218C190.505 238.616 185.966 242.277 195.044 234.955C204.121 227.634 262.056 201.395 262.056 201.395C262.056 201.395 279.057 192.971 290.566 217.62Z" fill="#2F2E41"/>
<path d="M146.111 573L155.111 602L130.111 619L112.111 603C112.111 603 119.111 578 116.111 572L146.111 573Z" fill="#FFB6B6"/>
<path d="M273.111 162L287.449 193.63L245.496 219.709L243.111 182L273.111 162Z" fill="#FFB6B6"/>
<path opacity="0.1" d="M273.111 162L287.449 193.63L245.496 219.709L243.111 182L273.111 162Z" fill="black"/>
<path d="M256.623 190.198C273.448 190.198 287.087 176.559 287.087 159.734C287.087 142.909 273.448 129.269 256.623 129.269C239.798 129.269 226.158 142.909 226.158 159.734C226.158 176.559 239.798 190.198 256.623 190.198Z" fill="#FFB6B6"/>
<path d="M245.111 213L288.111 184L281.111 429C281.111 429 245.611 367.5 218.611 364.5C218.611 364.5 221.611 357.5 223.611 353.5C225.611 349.5 228.611 329.5 228.611 329.5L242.611 221.5L245.111 213Z" fill="#A64141"/>
<path d="M279.611 466.5L241.611 332.5C241.611 332.5 247.611 224.5 288.111 184L297.611 198.5C297.611 198.5 307.004 199.894 305.307 206.197C303.611 212.5 342.611 444.5 342.611 444.5H302.189C302.189 444.5 298.611 466.5 279.611 466.5Z" fill="#2F2E41"/>
<path d="M245.111 213V209C245.111 209 226.611 210.5 225.611 221.5C224.611 232.5 216.611 275.5 224.611 301.5L214.611 317.5L207.611 355.5L229.611 361.5L241.611 269.22C241.611 269.22 249.611 220.5 245.111 213Z" fill="#2F2E41"/>
<path d="M280.611 403.5C280.611 403.5 297.611 452.5 261.611 453.5C225.611 454.5 169.528 454.5 169.528 454.5L141.611 469.5L149.611 578.5L93.6106 579.5C93.6106 579.5 75.6106 445.5 91.6106 429.5C107.611 413.5 153.611 396.5 153.611 396.5L206.611 369.5L221.516 351.406L280.611 403.5Z" fill="#2F2E41"/>
<path d="M282.651 177.5C284.775 176.745 304.661 153.44 288.111 138C288.111 138 281.662 119.139 255.943 121.117C230.225 123.095 223.3 137.162 223.3 144.472C223.3 151.781 230.111 160 230.111 160C230.111 160 225.279 139.911 236.16 140.901C247.041 141.89 244.073 145.846 251.986 143.868C259.9 141.89 267.813 144.857 267.813 144.857L275.727 147.825V159.893C275.727 159.893 279.177 157.125 279.43 159.893C279.683 162.662 282.651 177.5 282.651 177.5Z" fill="#2F2E41"/>
<path d="M110.611 424.5L109.611 455.5L70.6106 448.5C70.6106 448.5 87.3562 420.941 84.9834 413.22L110.611 424.5Z" fill="#FFB6B6"/>
<path d="M106.611 448.5C106.611 448.5 113.611 448.5 113.611 452.5C113.611 456.5 124.611 487.5 103.611 488.5C82.6106 489.5 83.6106 485.5 83.6106 485.5C83.6106 485.5 24.6106 512.5 3.61057 472.5C3.61057 472.5 -1.38943 462.5 10.6106 460.5C22.6106 458.5 70.6106 441.756 70.6106 441.756C70.6106 441.756 98.6106 452.5 106.611 448.5Z" fill="#2F2E41"/>
<path d="M147.111 602C147.111 602 154.111 593.52 155.111 594.26C156.111 595 178.111 620 163.111 627C148.111 634 140.111 637 140.111 637L136.111 631C136.111 631 106.111 660 60.1105 640C60.1105 640 56.1105 631 65.1105 629C74.1105 627 112.111 596.528 112.111 596.528C112.111 596.528 128.111 608 136.111 606C144.111 604 147.111 602 147.111 602Z" fill="#2F2E41"/>
<path d="M218.611 361.5C218.611 361.5 125.111 314 117.111 314C109.111 314 93.8193 317.291 90.4649 332.646C87.1106 348 67.1106 422 67.1106 422L116.111 434L135.111 381L166.111 409L218.611 377.693V361.5Z" fill="#2F2E41"/>
<path d="M174.584 343.15C165.578 344.472 158.961 350.19 159.803 355.921C160.645 361.652 168.627 365.225 177.635 363.901C181.241 363.422 184.68 362.086 187.663 360.006L225.749 353.923L222.514 336.112L185.312 343.999C181.855 342.863 178.176 342.572 174.584 343.15Z" fill="#FFB6B6"/>
<path d="M306.294 200.384C306.294 200.384 330.816 209.254 325.914 232.275C321.012 255.296 316.889 320.358 313.421 323.181C309.953 326.005 308.468 341.454 287.151 347.363C265.834 353.273 204.664 379.429 204.664 379.429L196.774 337.269L265.187 308.013C265.187 308.013 265.556 306.698 268.14 301.468C270.725 296.237 271.403 302.028 270.046 290.446C268.69 278.863 277.371 215.858 277.371 215.858C277.371 215.858 279.305 196.983 306.294 200.384Z" fill="#2F2E41"/>
<path d="M84.862 13.936C84.7385 14.0561 84.6246 14.1824 84.5025 14.3034C65.4315 -4.62116 34.7179 -4.78765 15.4428 13.9289C-3.90079 32.7192 -4.55446 63.5657 13.9758 83.1587L13.9638 83.1704L14.4252 83.6455L82.6627 153.905L153.397 85.2056L153.2 85.0031C153.319 84.8899 153.443 84.7849 153.561 84.6702C173.094 65.6995 173.549 34.4864 154.578 14.9536C135.608 -4.57908 104.395 -5.03464 84.862 13.936Z" fill="#A64141"/>
</svg>
